<?xml version="1.0" encoding="utf-8"?>
<!-- Generator: Adobe Illustrator 27.1.1, SVG Export Plug-In . SVG Version: 6.00 Build 0)  -->
<svg version="1.1" id="Tax03" xmlns="http://www.w3.org/2000/svg" xmlns:xlink="http://www.w3.org/1999/xlink" x="0px" y="0px"
	 viewBox="0 0 3000 3000" style="enable-background:new 0 0 3000 3000;" xml:space="preserve">
<style type="text/css">
	.st0{fill:#EFF0F4;}
	.st1{opacity:0.2;}
	.st2{fill:#1D6AB7;}
	.st3{fill:#ACB6CC;}
	.st4{fill:#DADEEA;}
	.st5{fill:#BAC3D8;}
	.st6{fill:#FFCA1A;}
	.st7{fill:#C7942B;}
	.st8{fill:#E3AF23;}
	.st9{fill:#DDAE9F;}
	.st10{fill:#46A7F1;}
	.st11{fill:#324075;}
	.st12{fill:#2F385B;}
	.st13{fill:#84C9FF;}
	.st14{fill:#71BDF8;}
	.st15{fill:#C69487;}
	.st16{fill:#FCFAF7;}
	.st17{fill:#D4DAE6;}
	.st18{opacity:0.5;fill:#D4DAE6;enable-background:new    ;}
	.st19{fill:#9AA8C1;}
</style>
<path id="Shadow" class="st0" d="M568.3,2619.9c-84.8,10.3-235.5,92.7,226.4,84.4c307.1-5.5,336.6,55.6,501.7,27.4
	c654.5-111.7,1228.1,6.8,1228.1-67.6C2524.5,2496.3,786.2,2593.5,568.3,2619.9z"/>
<g id="Background">
	<path class="st0" d="M2516.3,2021c-73.9-66.9-200.1-80.1-295.5-89.5c-109.5-10.7-221.3-9.1-332.1-18.4
		c-286.4-24.2-576.2-128.7-809.3-300.6c-146.6-108.2-287.6-232.8-429.3-349.3c-48.4-39.7-129.7-106.8-188-46.5
		c-33.4,34.5-41.4,74.2-36.2,115.3c8.7,69.7,55.2,143.8,85,198c64,116.3,163.5,221.9,248.4,316.6
		c96.1,107.3,229.4,215.3,353.7,286.6c56.6,32.4,117.1,62.5,178.8,87.3c291.1,117.1,614,122.8,911,70.4
		c91.3-16.1,182.1-48.5,264.6-90.1c37.1-18.7,76.4-44.6,84.8-86.5C2559.2,2079.8,2541.7,2043.9,2516.3,2021z"/>
	<g class="st1">
		<path class="st2" d="M567.8,1474.8c-4.1,0.3-7.3,3.8-7,8c0.3,4.1,3.8,7.3,8,7c4.1-0.3,7.3-3.8,7-8
			C575.5,1477.6,571.9,1474.5,567.8,1474.8z"/>
		<path class="st2" d="M567.8,1425.8c-4.1,0.3-7.3,3.8-7,8c0.3,4.1,3.8,7.3,8,7c4.1-0.3,7.3-3.8,7-8
			C575.5,1428.7,571.9,1425.5,567.8,1425.8z"/>
		<path class="st2" d="M567.8,1376.8c-4.1,0.3-7.3,3.8-7,8c0.3,4.1,3.8,7.3,8,7c4.1-0.3,7.3-3.8,7-8
			C575.5,1379.7,571.9,1376.6,567.8,1376.8z"/>
		<path class="st2" d="M567.8,1327.9c-4.1,0.3-7.3,3.8-7,8c0.3,4.1,3.8,7.3,8,7s7.3-3.8,7-8C575.5,1330.7,571.9,1327.6,567.8,1327.9
			z"/>
		<path class="st2" d="M538.7,1442.8c-4.1,0.3-7.3,3.8-7,8c0.3,4.1,3.8,7.3,8,7c4.1-0.3,7.3-3.8,7-8
			C546.4,1445.7,542.8,1442.5,538.7,1442.8z"/>
		<path class="st2" d="M538.7,1393.8c-4.1,0.3-7.3,3.8-7,8c0.3,4.1,3.8,7.3,8,7c4.1-0.3,7.3-3.8,7-8
			C546.4,1396.7,542.8,1393.6,538.7,1393.8z"/>
		<path class="st2" d="M538.7,1344.9c-4.1,0.3-7.3,3.8-7,8c0.3,4.1,3.8,7.3,8,7c4.1-0.3,7.3-3.8,7-8
			C546.4,1347.8,542.8,1344.6,538.7,1344.9z"/>
		<path class="st2" d="M538.7,1295.9c-4.1,0.3-7.3,3.8-7,8c0.3,4.1,3.8,7.3,8,7c4.1-0.3,7.3-3.8,7-8
			C546.4,1298.8,542.8,1295.7,538.7,1295.9z"/>
	</g>
	<g>
		<g>
			<path class="st3" d="M685.5,524.4l37.6-36.6c0,0-29.3-16.7-29.5-14.5C693.3,475.5,685.5,524.4,685.5,524.4z"/>
			<polygon class="st4" points="624.7,452 676.2,473 790.5,376.4 			"/>
			<path class="st5" d="M676.2,473c-0.3,2.9,9.2,51.4,9.2,51.4l12.2-42.7l92.8-105.3L676.2,473z"/>
			<polygon class="st4" points="790.5,376.4 697.7,481.7 754.9,514.8 			"/>
		</g>
		<path class="st0" d="M679.9,547.9c-0.1-1.4,0.1-6-3.3-5.5c-1.7,0.3-2.8,3.3-3,5c-2.5,25-7.3,50.4-24.9,67.7
			c-0.2,0.2-0.5,0.4-0.8,0.7c-3.6-15.8-11.5-30.3-24.8-41.2c-23.1-19-56.3-10.2-58.9,21.4c-3.2,39.6,42.1,47.9,70.3,36.2
			c3.1-1.3,6-2.9,8.8-4.6v0.1c3.6,32-11.9,63.8-31.9,87.7c-43.6,52.1-121.7,60.5-184.5,51.3c-4.1-0.6-4.8,5.8-0.7,6.4
			c85.6,12.5,186.7-12.1,218.1-102.3c5.3-15.2,7.2-31.7,5.1-47.4C671.4,606,681,575.1,679.9,547.9z M600.5,631.4
			c-27-2.6-40.2-39-19-56.7c12.9-10.8,30.9-0.9,41.4,7.7c11.7,9.6,17,23.5,19.5,37.8C630.4,629,615.2,632.8,600.5,631.4z"/>
	</g>
</g>
<g id="Tax_form">
	<path class="st5" d="M2497,376.3l-1156.9-20.1c-22.2-0.4-40.5,17.3-40.9,39.5l-27.7,1594c-0.4,22.2,17.3,40.5,39.5,40.9
		l1156.9,20.1c22.2,0.4,40.5-17.3,40.9-39.5l27.7-1594C2536.9,394.9,2519.2,376.6,2497,376.3z"/>
	
		<rect x="1126.3" y="628.4" transform="matrix(1.739938e-02 -0.9998 0.9998 1.739938e-02 668.1472 3086.6296)" class="st4" width="1556.3" height="1150"/>
	<path class="st6" d="M2347.1,1914.7c0,0-960.8,59.9-1140.6-165.2C1298.7,1428.3,1353,385.7,1353,385.7l1117.9,43.7L2347.1,1914.7z"
		/>
	<g>
		<path class="st7" d="M1973,984.4c-0.6,10.4,6.9,19.1,17,19.6l245.3,12.7c10,0.5,18.5-7.3,19.1-17.8c0.6-10.4-6.9-19.1-17-19.6
			l-245.3-12.7C1982,966.2,1973.6,974,1973,984.4z"/>
		<path class="st8" d="M1493.4,959.6c-0.6,10.4,6.9,19.1,17,19.6l412.7,21.4c10,0.5,18.5-7.3,19.1-17.8c0.6-10.4-6.9-19.1-17-19.6
			l-412.7-21.4C1502.6,941.3,1494,949.2,1493.4,959.6z"/>
		<path class="st8" d="M1862.7,1065.6c-0.6,10.4,6.9,19.1,17,19.6l350.4,18.1c10,0.5,18.5-7.3,19.1-17.8s-6.9-19.1-17-19.6
			l-350.4-18.1C1872,1047.3,1863.6,1055.2,1862.7,1065.6z"/>
		<path class="st7" d="M1488.5,1046.2c-0.6,10.4,6.9,19.1,17,19.6l307.4,15.9c10,0.5,18.5-7.3,19.1-17.8c0.6-10.4-6.9-19.1-17-19.6
			l-307.4-15.9C1497.7,1028,1489.1,1035.8,1488.5,1046.2z"/>
		<polygon class="st8" points="2284.4,889.9 1458.6,847.1 1474.4,566.6 2300.3,609.3 		"/>
		<path class="st6" d="M1827,673.4l116.1,6l-1.7,29.9l-39.8-2.1l-7,124.4l-36.5-1.9l7-124.4l-39.8-2.1L1827,673.4L1827,673.4z"/>
		<path class="st6" d="M2048.2,812.3l-56.1-2.9l-10.7,26.7l-38.3-2l63.1-151.4l42.2,2.2l45.6,157.1l-38.6-2L2048.2,812.3z
			 M2024.9,725.2l-21.9,55.4l37.1,1.9L2024.9,725.2z"/>
		<path class="st6" d="M2175,798.7l-29.7,45.9l-41.6-2.2l52.5-75.9l-45-78.5l42.5,2.2l27.4,48.2l29.1-45.3l41.6,2.2l-52.2,75.3
			l45.3,79.1l-42.5-2.2L2175,798.7z"/>
		<g>
			<path class="st8" d="M2057.4,1184.7l-8.2,144.5l185.8,9.6l8.2-144.5L2057.4,1184.7z M2087.7,1220.9l121.4,6.3l-4.3,75.8
				l-121.4-6.3L2087.7,1220.9z"/>
			<g>
				<path class="st7" d="M1760.5,1188.1c-0.3,5.4,3.8,9.8,9.5,10.1l198.1,10.3c5.6,0.3,10.3-3.7,10.6-9.1c0.3-5.4-3.8-9.8-9.5-10.1
					l-197.8-10.2C1765.8,1178.7,1761.2,1182.7,1760.5,1188.1z"/>
				<path class="st8" d="M1481.3,1173.6c-0.3,5.4,3.8,9.8,9.5,10.1l242.5,12.6c5.6,0.3,10.3-3.7,10.6-9.1c0.3-5.4-3.8-9.8-9.5-10.1
					l-242.5-12.6C1486.2,1164.2,1481.6,1168.2,1481.3,1173.6z"/>
				<path class="st8" d="M1699.4,1238.8c-0.3,5.4,3.8,9.8,9.5,10.1l256.1,13.3c5.6,0.3,10.3-3.7,10.6-9.1c0.3-5.4-3.8-9.8-9.5-10.1
					l-256.1-13.3C1704.7,1229.4,1699.8,1233.4,1699.4,1238.8z"/>
				<path class="st7" d="M1478.3,1227.3c-0.3,5.4,3.8,9.8,9.5,10.1l184.2,9.5c5.6,0.3,10.3-3.7,10.6-9.1c0.3-5.4-3.8-9.8-9.5-10.1
					l-184.2-9.5C1483.2,1218,1478.6,1221.9,1478.3,1227.3z"/>
				<path class="st8" d="M1628.6,1289c-0.3,5.4,3.8,9.8,9.5,10.1l323.9,16.8c5.6,0.3,10.3-3.7,10.6-9.1c0.3-5.4-3.8-9.8-9.5-10.1
					l-323.9-16.8C1633.6,1279.6,1628.9,1283.6,1628.6,1289z"/>
			</g>
			<polygon class="st7" points="2113.8,1244.1 2137,1229.5 2155.5,1249 2267,1195.6 2272.2,1198.3 2149.4,1293.2 			"/>
		</g>
		<g>
			<path class="st8" d="M2046.1,1385.2l-8.2,144.5l185.8,9.6l8.2-144.5L2046.1,1385.2z M2076.4,1421.4l121.4,6.3l-4.3,75.8
				l-121.4-6.3L2076.4,1421.4z"/>
			<g>
				<path class="st7" d="M1749.2,1388.6c-0.3,5.4,3.8,9.8,9.5,10.1l198.1,10.3c5.6,0.3,10.3-3.7,10.6-9.1c0.3-5.4-3.8-9.8-9.5-10.1
					l-197.8-10.2C1754.4,1379.2,1749.8,1383.2,1749.2,1388.6z"/>
				<path class="st8" d="M1470,1374.1c-0.3,5.4,3.8,9.8,9.5,10.1l242.5,12.6c5.6,0.3,10.3-3.7,10.6-9.1c0.3-5.4-3.8-9.8-9.5-10.1
					l-242.5-12.6C1474.9,1364.7,1470.3,1368.7,1470,1374.1z"/>
				<path class="st8" d="M1688.1,1439.3c-0.3,5.4,3.8,9.8,9.5,10.1l256.1,13.3c5.6,0.3,10.3-3.7,10.6-9.1c0.3-5.4-3.8-9.8-9.5-10.1
					l-256.1-13.3C1693.4,1429.9,1688.4,1433.9,1688.1,1439.3z"/>
				<path class="st7" d="M1466.9,1427.8c-0.3,5.4,3.8,9.8,9.5,10.1l184.2,9.5c5.6,0.3,10.3-3.7,10.6-9.1c0.3-5.4-3.8-9.8-9.5-10.1
					l-184.2-9.5C1471.9,1418.5,1467.2,1422.4,1466.9,1427.8z"/>
				<path class="st8" d="M1617.3,1489.5c-0.3,5.4,3.8,9.8,9.5,10.1l323.9,16.8c5.6,0.3,10.3-3.7,10.6-9.1c0.3-5.4-3.8-9.8-9.5-10.1
					l-323.9-16.8C1622.2,1480.1,1617.6,1484.1,1617.3,1489.5z"/>
			</g>
			<polygon class="st7" points="2102.4,1444.6 2125.7,1430 2144.2,1449.5 2255.6,1396.1 2260.8,1398.8 2138.1,1493.7 			"/>
		</g>
		<g>
			<path class="st8" d="M2034.7,1585.7l-8.2,144.5l185.8,9.6l8.2-144.5L2034.7,1585.7z M2065,1621.9l121.4,6.3l-4.3,75.8l-121.4-6.3
				L2065,1621.9z"/>
			<g>
				<path class="st7" d="M1737.8,1589.1c-0.3,5.4,3.8,9.8,9.5,10.1l198.1,10.3c5.6,0.3,10.3-3.7,10.6-9.1c0.3-5.4-3.8-9.8-9.5-10.1
					l-197.8-10.2C1743.1,1579.7,1738.5,1583.7,1737.8,1589.1z"/>
				<path class="st8" d="M1458.6,1574.6c-0.3,5.4,3.8,9.8,9.5,10.1l242.5,12.6c5.6,0.3,10.3-3.7,10.6-9.1c0.3-5.4-3.8-9.8-9.5-10.1
					l-242.5-12.6C1463.6,1565.2,1458.9,1569.2,1458.6,1574.6z"/>
				<path class="st8" d="M1676.8,1639.8c-0.3,5.4,3.8,9.8,9.5,10.1l256.1,13.3c5.6,0.3,10.3-3.7,10.6-9.1c0.3-5.4-3.8-9.8-9.5-10.1
					l-256.1-13.3C1682,1630.4,1677.1,1634.4,1676.8,1639.8z"/>
				<path class="st7" d="M1455.6,1628.3c-0.3,5.4,3.8,9.8,9.5,10.1l184.2,9.5c5.6,0.3,10.3-3.7,10.6-9.1c0.3-5.4-3.8-9.8-9.5-10.1
					l-184.2-9.5C1460.5,1619,1455.9,1622.9,1455.6,1628.3z"/>
				<path class="st8" d="M1605.9,1690c-0.3,5.4,3.8,9.8,9.5,10.1l323.9,16.8c5.6,0.3,10.3-3.7,10.6-9.1c0.3-5.4-3.8-9.8-9.5-10.1
					l-323.9-16.8C1610.9,1680.6,1606.3,1684.6,1605.9,1690z"/>
			</g>
			<polygon class="st7" points="2091.1,1645.2 2114.3,1630.5 2132.8,1650 2244.3,1596.6 2249.5,1599.3 2126.7,1694.2 			"/>
		</g>
	</g>
	<g>
		<path class="st4" d="M1774.9,442.2l256.7,9.2c25.9,0.9,47.6-19.3,48.6-45.2c0.9-25.9-19.3-47.6-45.2-48.6l-60.8-2.2l0.9-24.7
			c1.3-37.3-27.8-68.6-65.1-69.9c-37.3-1.3-68.6,27.8-69.9,65.1l-0.9,24.7l-60.8-2.2c-25.9-0.9-47.6,19.3-48.6,45.2
			C1728.8,419.5,1749,441.2,1774.9,442.2z"/>
		<path class="st5" d="M1866.2,351.8l-21.7-0.7c0,0-6-69.9,51.9-75.7C1896.5,275.4,1856.2,305.4,1866.2,351.8z"/>
		<path class="st5" d="M1743.9,419c0,0-11.4-20.5,1.3-47c3.7-7.6,14.2-18.5,30.3-15.2c0,0-21.2,13.1-18,47
			C1760.4,435.1,1743.9,419,1743.9,419z"/>
	</g>
</g>
<g id="Character">
	<path class="st9" d="M657.8,923.1l-67.2,82.4c0,0,35.7,63.3,41.7,75.7c6,12.3,63.9,33.7,63.9,33.7l86.5-92.5L657.8,923.1z"/>
	<path class="st10" d="M882.4,770.5l-32.5,3c0,0-235.5,152.3-229.1,175.9c6.3,23.6,109.3,121.2,119.1,126.2
		c9.9,4.9,113.6-113.7,113.6-113.7L882.4,770.5z"/>
	<path class="st9" d="M1162.3,924.9l103.5,149.8c0,0-68.9,122-80.7,126.7c-11.8,4.6-95.5-122.6-95.5-122.6L1162.3,924.9z"/>
	<path class="st10" d="M1017,770.5c0,0,27.8,6.5,31.8,6s162,163.8,175.2,192.7c13.3,28.9-74.8,150.4-102.8,162.7
		s-82.9-197.9-82.9-197.9L1017,770.5z"/>
	<g>
		<g>
			<path class="st11" d="M615.3,2650.3c0,0-0.6,9.5,8.5,13.7c22.5,10.5,97.3-0.7,100.9-7.1c3.7-6.4,2.4-14.4,2.4-14.4L615.3,2650.3z
				"/>
			<polygon class="st9" points="722.4,2543 710,2612.2 678.7,2612.2 678.9,2545.4 			"/>
			<path class="st12" d="M720.5,2585.6c-2.8-12.1-31.8-3.6-31.8-3.6c-17.9,3.4-4.4,17.6-8,35.8c-1,4.9-2.2,9.6-3.3,13.9
				c-6.5-8.2-18.3-14-36.6-10.3c-15.9,3.3-32.3,28.4-23.6,34.8c12.3,9.2,54.8,11.1,63.5,1.6c1.1-1.2,1.9-2.9,2.4-4.8
				c14.6,1.3,37.4,2.5,41.9-2.8C731.6,2642.3,723.3,2597.6,720.5,2585.6z"/>
			<path class="st11" d="M670.8,2580.5c13.5-2.5,16.1-1.7,23.6,2.5c6.1,3.4,0.4,14.2,1.4,16.2c6,11.2-14.7,43.4-22.3,33.5
				c-7.6-10-27.8-11.4-27.8-11.4C688.6,2615.2,659.9,2582.6,670.8,2580.5z"/>
		</g>
		<g>
			<path class="st11" d="M1186.9,2650.3c0,0,0.6,9.5-8.5,13.7c-22.5,10.5-97.3-0.7-100.9-7.1c-3.7-6.4-2.4-14.4-2.4-14.4
				L1186.9,2650.3z"/>
			<polygon class="st9" points="1079.9,2543 1092.2,2612.2 1123.5,2612.2 1123.3,2545.4 			"/>
			<path class="st12" d="M1081.7,2585.6c2.8-12.1,31.8-3.6,31.8-3.6c17.9,3.4,4.4,17.6,8,35.8c1,4.9,2.2,9.6,3.3,13.9
				c6.5-8.2,18.3-14,36.6-10.3c15.9,3.3,32.3,28.4,23.6,34.8c-12.3,9.2-54.8,11.1-63.5,1.6c-1.1-1.2-1.9-2.9-2.4-4.8
				c-14.6,1.3-37.4,2.5-41.9-2.8C1070.6,2642.3,1078.9,2597.6,1081.7,2585.6z"/>
			<path class="st11" d="M1131.5,2580.5c-13.5-2.5-16.1-1.7-23.6,2.5c-6.1,3.4-0.4,14.2-1.4,16.2c-6,11.2,14.7,43.4,22.3,33.5
				c7.6-10,27.8-11.4,27.8-11.4C1113.6,2615.2,1142.4,2582.6,1131.5,2580.5z"/>
		</g>
		<polygon class="st12" points="1172.2,1352.4 1136,2554 1070.7,2554.5 891.2,1378 		"/>
		<path class="st11" d="M1063,2536.7c0,0-1.3,18.4,1.9,21.3c3.2,3,74.1,13.2,75.2,7.6c1.2-5.6,11.5-27.9,5.3-29.8
			C1139.2,2534,1062.2,2528.9,1063,2536.7z"/>
		<polygon class="st12" points="715.6,1338.8 668.2,2554 732.7,2554 1013,1360.3 		"/>
		<polygon class="st11" points="845.9,1414.9 776,1860.4 684.5,2135.9 706.2,1522.7 		"/>
		<path class="st11" d="M658.5,2536.7c0,0-1.3,18.4,1.9,21.3c3.2,3,74.1,13.2,75.2,7.6c1.2-5.6,11.5-27.9,5.3-29.8
			C734.7,2534,657.7,2528.9,658.5,2536.7z"/>
		<path class="st12" d="M712,1481.3c0,0,55.2-53.8,66.3-46.9c11,6.9,16.6,16.6,16.6,16.6s-63.5,81.4-82.8,62.1
			C692.6,1493.7,712,1481.3,712,1481.3z"/>
		<path class="st11" d="M939.3,1688.1c-10,1.7-16.1-64.8-16.7-120.3c-0.1-7.6,0-15.1,0.1-22.1c2.8,0,5.5,0,8.3-0.2
			c3.7-0.2,7.4-0.5,11.1-1c0.8,7.1,1.5,14.6,2.1,22.4C948.5,1621.2,948.7,1686.5,939.3,1688.1z"/>
		<path class="st11" d="M922.7,1545.7c-0.1,7-0.2,14.4-0.1,22.1c-16.2-0.8-31.8-4.9-43.6-11.3c-16.1-8.1-25-20.3-24.7-22.8
			c-0.6-4.5,9.6,0.8,24.2,5C891,1542.6,906.8,1545.7,922.7,1545.7z"/>
		<path class="st11" d="M993.7,1546.3c-11.1,9.5-29.6,17.8-49.6,20.5c-0.6-7.8-1.3-15.3-2.1-22.4c14.6-2.1,28.4-6.6,39.3-11.7
			c13.8-6,23.2-12.8,25.9-9.1C1010,1525,1006.1,1536.3,993.7,1546.3z"/>
	</g>
	<path class="st13" d="M1017,770.5H882.4c0,0-184.7,424-202.4,547.9c-17.7,123.8,457.5,136.1,496.9,51.5
		C1216,1285.3,1017,770.5,1017,770.5z"/>
	<g>
		<path class="st14" d="M725.6,1161.7l-29.7,199.2c-3.6-3.7-6.7-7.5-9.2-11.5l19.5-130.7C712,1200.7,718.6,1181.6,725.6,1161.7z"/>
		<path class="st14" d="M790.8,990.4l-46.5,400c-3.6-1.4-7-2.9-10.4-4.5l41.4-356.7C780.6,1016.2,785.7,1003.2,790.8,990.4z"/>
		<path class="st14" d="M840.5,869l-44.6,537.4c-3.6-0.9-7.1-1.7-10.6-2.7l41.7-502.2C831.6,890.2,836.2,879.3,840.5,869z"/>
		<path class="st14" d="M880.8,774.1l-32,642.2c-3.6-0.5-7.2-1-10.7-1.6l30.5-612.1C874.4,788.9,878.6,779.1,880.8,774.1z"/>
		<path class="st14" d="M913.3,770.5l-10.8,651.5c-3.6-0.3-7.2-0.5-10.8-0.8l10.8-650.6H913.3z"/>
		<path class="st14" d="M956.4,1424c-3.6,0-7.2-0.1-10.8-0.2l-10.8-653.4h10.8L956.4,1424z"/>
		<path class="st14" d="M1010.4,1422.7c-3.6,0.2-7.2,0.4-10.8,0.6l-32.5-652.8h10.8L1010.4,1422.7z"/>
		<path class="st14" d="M1063.9,1417.5c-3.5,0.5-7.1,1-10.7,1.4l-53.8-648.4h10.8L1063.9,1417.5z"/>
		<path class="st14" d="M1116.5,1406.6c-3.4,1-6.9,1.9-10.5,2.8l-67.6-582.2c4.8,12.9,10.1,27.6,15.9,43.7L1116.5,1406.6z"/>
		<path class="st14" d="M1166.4,1383c-2.9,2.5-6.2,4.9-9.9,7.1l-58.9-394.2c6.8,20.3,13.6,41.2,20.2,62.1L1166.4,1383z"/>
	</g>
	<g>
		<path class="st10" d="M1003.4,771.3c0-11.7-27.8-25.7-54.2-25.7s-63.7,16.3-63.7,28c0,7,4.1,40.9,20,49c10.6,5.4,39-29,39-29
			s36.5,35.1,45.4,30C1005.3,814.9,1003.4,778.7,1003.4,771.3z"/>
	</g>
	<g>
		<g>
			<path class="st12" d="M856.4,607.4c3.2,14.4-12.8,30.8-5.9,44.2c5.7,10.6,23,14.3,37.3,19.8c18.8,7.1,36.2,19.4,57.5,25.2
				c14.8,4,30.1,4.4,44.1,3.3c28.5-2.2,53.3-10.6,70.9-24.8c-0.9,1.1-1.9,2.1-2.8,3.2c10.7-7.3,14.8-20.4,12.1-34.7
				c-1.9-9.8-6.5-20.5-3.6-28.7c3.7-10.6,17.8-12.3,22.2-22.3c3.8-8.7-1.1-22.3-8.9-30.9c-5.8-6.3-13.1-10.4-17.2-17.7
				c-5.7-10.2-2.9-22.5-6.6-33.4c-4.8-14.2-17.1-20.7-27.6-23.2c-10.5-2.5-22.1-4-28.3-14.1c-2-3.5-3.4-7.7-5.1-11.1
				c-4.3-8.2-11.6-11.5-19.1-9.8c-7.7,1.7-15.7,8-22.8,16.2c-3.8,4.4-7.6,9.6-12.1,11.5c-5.5,2.2-9.8-0.9-14.1-2.5
				c-4.1-1.5-8.8-1.6-13.9-0.3c-3.6,0.8-7.5,2.5-11.1,5.6c-6.6,5.5-11.2,14.4-13.8,22.3s-3.9,15.9-7.8,23.6
				c-4.6,9.5-3.9,12.3-11.5,20.3c-7.6,8.1-24.3,22.5-24.3,31.4C844,590.6,854.3,597,856.4,607.4z"/>
			<path class="st9" d="M975.9,704.7l2.1,70.2c-31.8,36.6-65.2-11.1-65.2-11.1l8.7-104.7L975.9,704.7z"/>
			<path class="st15" d="M975.9,704.7l-28.3-23.8c-8.3,5.3-14.3,11.8-13.1,19.2c2.3,14.8,27.5,35.9,42.7,47.5L975.9,704.7z"/>
			<path class="st9" d="M898.2,552l5.4,66.7c0,0-4.9-13.3-19.4-4.9c-14.5,8.5,0.5,30,3.7,42.1c3.2,12.2,15.3,4.4,15.3,4.4
				s30.5,69.7,97.1,63.3c66.6-6.5,57.9-174.4,57.9-174.4C1055.4,494.3,898.2,551.9,898.2,552z"/>
			<path class="st12" d="M893.7,648.2l0.4-14l-6.3-6.5l6.8,2.3c0.7-3.7-1.5-12-1.5-12C905.3,628.8,893.8,648.2,893.7,648.2z"/>
			<path class="st12" d="M1058.7,507.9c45.5,13.7,21.3,83.4-15.3,53.3c-10,14-43.7,19.4-71.7,4.8c-28-14.6-78.3,31.6-82.7,24.5
				C844.6,517.7,1013.2,494.2,1058.7,507.9z"/>
			<g>
				<path class="st15" d="M957.2,636.5c7,1.3,12.2,6,11.4,10.6c-0.7,4.7-7.1,7.5-14.2,6.3c-7-1.3-12.1-6-11.4-10.6
					C943.8,638.1,950.1,635.3,957.2,636.5z"/>
				<path class="st15" d="M1028.2,643.5c7-1.4,13.5,1.4,14.3,6c0.8,4.7-4.1,9.5-11.1,10.8c-7,1.4-13.5-1.4-14.3-6
					C1016.1,649.7,1021.2,644.9,1028.2,643.5z"/>
				<path class="st12" d="M944.6,590.4c-0.4-0.9,0-2.1,1.1-2.5c25.9-5,35,8.1,34.1,8.6C977,599,944.9,591.5,944.6,590.4z"/>
				<path class="st12" d="M1013.6,592.8c-0.4-0.9,0-2.1,1.1-2.5c25.9-5,35,8.1,34.1,8.6C1046.1,601.5,1013.9,594,1013.6,592.8z"/>
				<path class="st12" d="M994.1,649.4c-0.9-0.6-1.1-1.9-0.4-2.7c0.6-0.9,1.9-1.1,2.7-0.4c1.9,1.5,3.5,2,4.8,1.6
					c1.4-0.3,2.5-1.8,3-2.8c-7.1-12-5.3-26.8-5.1-27.4c0.1-1.1,1.1-1.9,2.2-1.7c1.1,0.1,1.8,1.2,1.7,2.2c0,0.1-1.9,14.8,5.1,25.6
					c0.3,0.5,0.4,1.2,0.2,1.8c0,0.2-1.8,4.8-6,6.1c-0.6,0.2-1.4,0.3-2,0.3C998.4,651.9,996.3,651.1,994.1,649.4z"/>
				<path class="st16" d="M990.4,674.3c-11,0.7-25.4-9.7-31.2-2.7c-5.8,6.9,8.4,20.3,29.6,22c21.2,1.7,30-13,25.9-22.9
					C1011.8,663.8,1001.4,673.6,990.4,674.3z"/>
				<path class="st12" d="M1029.7,606.9c4.2,0,7.6,5,7.6,11.1c0,6.2-3.4,11.1-7.6,11.1s-7.6-4.9-7.6-11.1
					C1022.1,612,1025.6,607,1029.7,606.9z"/>
				<path class="st12" d="M961.3,606.9c4.2,0,7.6,5,7.6,11.1c0,6.2-3.4,11.1-7.6,11.1s-7.6-4.9-7.6-11.1
					C953.7,612,957.1,607,961.3,606.9z"/>
				<path class="st15" d="M970.3,697.3c-0.4-0.5-0.5-1.5-0.1-2.1s22.1,7.5,22.2,8.2c0.2,0.8-2.5,2.3-4.9,2.3
					C983.3,705.7,976.7,704.3,970.3,697.3z"/>
			</g>
		</g>
	</g>
	<g>
		<g>
			<path class="st9" d="M1156.4,1161c0,0,97.6-166.1,148.2-300.9c3.9-2.5,62.1-9.9,59.2,4.7c-9.8,48.8-53.2,333.2-119,349.3
				C1180.8,1229.7,1156.4,1161,1156.4,1161z"/>
			<path class="st15" d="M1363.7,864.8c-1.9,9.3-4.9,27-9.1,49.8c-21,8.4-50,10.3-50,10.3l-46.1,42.5c16.8-35.6,33-72.5,46.1-107.3
				C1308.5,857.5,1366.7,850.2,1363.7,864.8z"/>
			<path class="st15" d="M1228.9,1023.9c0,8.6,4.1,81.5-8.2,86.4S1219.7,1034.2,1228.9,1023.9z"/>
			<g>
				<g>
					<g>
						<g>
							<path class="st9" d="M1249.3,822c0,0-12.1-18.2,2.9-37.6s20.3-28.2,23.5-44.1c3.2-15.9,22.2,15.8,10.3,53.2
								C1275.6,826.5,1259.6,823.2,1249.3,822z"/>
						</g>
					</g>
					<g>
						<path class="st9" d="M1290.9,768.4c0.4,0,0.3,3.5-0.2,9.1c-0.8,5.6-1.9,13.3-4.9,21.4c-3,8.1-7.3,15-11.7,18.8
							c-4.3,4-8.3,4.4-8.3,4c-0.1-0.4,3.2-1.4,6.9-5.4c3.8-3.8,7.6-10.5,10.4-18.3C1288.7,782.2,1289.9,768.3,1290.9,768.4z"/>
					</g>
				</g>
				<path class="st11" d="M691.3,1441.5c20.8,25,45.5,48.4,76.6,59.6l26.8-29.7l8.5-9.5l653.5-723.7l-71.2-72.1l-683.2,702.5
					l-10.8,11.1l-26.7,27.4C673.4,1418.8,682,1430.4,691.3,1441.5z"/>
				<path class="st12" d="M1456.7,738.2l-653.5,723.6l-8.6,9.6l-26.8,29.7c-31.1-11.1-55.8-34.6-76.6-59.6
					c-9.2-11.1-17.9-22.7-26.5-34.3l26.7-27.5l10.9-11.1L849.8,1217c35.1,31.6,91,10.7,91,10.7c143.2-76.6,369.5-379.1,483.8-521.9
					L1456.7,738.2z"/>
				<g>
					<g>
						<g>
							<path class="st9" d="M1391.5,836.6c0,0,22.2,6,19.6-24.8s-23.2-33.1-28.1-24.3c-4.8,8.8-8.6,14-0.2,28.9
								c0,0-12.2-8.4-19.1,0.6s-4,20-4,20s-9.3-9.7-14.5-7.2s-11.1,15.9-5,29.3c0,0-13.3-7.1-17.4,10.4c-4,17.4,1.5,15.5,1.5,15.5
								l-14,15.5c0,0,25,11.9,39.9-17.9c0,0,21.4,2,18.2-23C1368.4,859.6,1397.4,865.1,1391.5,836.6z"/>
						</g>
					</g>
					<g>
						<g>
							<path class="st15" d="M1391.3,836.5c-1,0.1-2.1-4.9-4.6-10.4c-2.4-5.6-5.4-9.6-4.8-10.3s5.1,2.8,7.8,9
								C1392.4,830.9,1392.1,836.5,1391.3,836.5z"/>
						</g>
						<g>
							<path class="st15" d="M1368.9,860.1c-0.5,0-0.9-1.3-1.7-3.3c-0.8-2-2-4.8-3.3-8c-2.7-6.2-4.9-11.3-4.1-11.8s4.3,4.1,7.1,10.5
								c1.4,3.2,2.3,6.3,2.6,8.7C1369.7,858.6,1369.3,860.1,1368.9,860.1z"/>
						</g>
						<g>
							<path class="st15" d="M1350.2,882.6c-0.5,0-0.7-1.5-1.4-3.7c-0.7-2.2-1.9-5.1-3.5-8.3c-3.2-6.3-6.4-11.3-5.7-11.9
								c0.7-0.6,5.1,3.7,8.6,10.4c1.7,3.4,2.7,6.8,2.9,9.3C1351.2,881.1,1350.6,882.7,1350.2,882.6z"/>
						</g>
					</g>
				</g>
				<path class="st11" d="M803.2,1461.8l-8.5,9.5c-33.1-19.2-62.1-44.9-88-73.9c-5.2-5.8-10.2-11.7-15.2-17.8l10.8-11.1
					C731.3,1404.7,764.2,1437.7,803.2,1461.8z"/>
				<path class="st6" d="M781.1,1484.4c-41.1-21.7-73.6-55.7-102.4-91.6l-66.2,68.1l0,0c-10.9,11.6-6.1,54.4,22.5,81.4
					c28.5,27,70,28.1,80.9,16.4l66.5-73.7C781.9,1484.8,781.5,1484.7,781.1,1484.4z"/>
				<path class="st8" d="M781.1,1484.4c-21.6-11.4-40.8-26.2-58.3-42.9c-2.4,8.8-5.8,17.4-10.1,25.4c-4.9,9-11,17.2-18.2,24.4
					c-7.7,7.6-16.6,14-26.2,19.1c-8.9,4.7-18.3,8.2-27.9,11.2c-6.1,1.9-12.3,3.5-18.5,4.8c3.7,5.6,8,11,13.2,15.9
					c28.5,27,70,28.1,80.9,16.4l66.5-73.7C781.9,1484.8,781.5,1484.7,781.1,1484.4z"/>
				<path class="st9" d="M1406,709.4c-20.7-20.9-20.5-43.3-20.5-43.3l101.4-34.6l-30.2,106.8C1456.7,738.3,1433.9,737.6,1406,709.4z
					"/>
				<path class="st11" d="M1488.5,630.5l-17.5,62c-5.6-3.9-11.1-8-16.4-12.3c-10.1-8.3-19.9-18.1-26.6-29L1488.5,630.5z"/>
			</g>
		</g>
		<path class="st9" d="M958.2,1322.5c-6.2-19.7-24.9-25.2-35.3-27.5c0,0,35.3-9.3,34-26.6c-2.8-17.2-51.7,2.1-81.2,2.9
			c-119.9-115.8-213.9-252.2-268.5-286c-24.7,17.7-81.4,105.4-34.1,147.6c64.1,57.3,297.6,225.4,300.6,230.7c-0.1,0-0.1,0-0.2-0.1
			c8.8,6.8,15.2,11,20,13.3c7.6,5.6,31.8,10.5,26.3-9.2c9.7,8.7,16.3-9.6,12.6-14.8c8,6.8,16.8-10.7,11.7-15.9
			C947.3,1338.6,960.1,1331.2,958.2,1322.5z"/>
		<path class="st15" d="M731.6,1118c17.2,6.6-63.3-81.2-60.8-59.4C672.2,1071.1,720.8,1113.8,731.6,1118z"/>
	</g>
</g>
<g id="Calendar_00000047754245072951516390000009433347120799283341_">
	<path class="st5" d="M2172.9,2215.6h-453c-13,0-23.1,10.1-22.6,22.5l12,355.1c0.4,12.4,11.2,22.5,24.2,22.5h453
		c13,0,23.1-10.1,22.6-22.5l-12-355.1C2196.7,2225.7,2185.9,2215.6,2172.9,2215.6z"/>
	<path class="st0" d="M2166.4,2215.6h-453c-13,0-24.1,10.5-24.7,23.4l-21.1,369c-0.7,13,9.1,23.4,22.1,23.4h453
		c13,0,24.1-10.5,24.7-23.4l21.1-369C2189.2,2226.1,2179.2,2215.6,2166.4,2215.6z"/>
	<path class="st17" d="M1685.2,2298.8l-17.6,309.1C1667.5,2608,1695.6,2369.9,1685.2,2298.8z"/>
	<path class="st17" d="M1688,2631.4h456.1C2144.1,2631.4,1916.1,2611.3,1688,2631.4z"/>
	<path class="st17" d="M2184.4,2308.6l3.9-69.5c0.7-13-9.1-23.4-22.1-23.4h-453c-13,0-24.1,10.5-24.7,23.4l-3.9,69.5H2184.4z"/>
	<g>
		<path class="st5" d="M2081,2262.9c0,9.5-7.8,17.3-17.3,17.3c-9.7,0-17.3-7.8-17.3-17.3c0-9.7,7.8-17.3,17.3-17.3
			S2081,2253.3,2081,2262.9z"/>
		<path class="st5" d="M1831.8,2262.9c0,9.5-7.8,17.3-17.3,17.3c-9.5,0-17.3-7.8-17.3-17.3c0-9.7,7.8-17.3,17.3-17.3
			S1831.8,2253.3,1831.8,2262.9z"/>
	</g>
	<g>
		<polygon class="st17" points="1815.7,2411.4 1754.8,2411.4 1758.3,2350.5 1819.1,2350.5 		"/>
		<polygon class="st18" points="1911.4,2411.4 1850.4,2411.4 1854,2350.5 1914.8,2350.5 		"/>
		<polygon class="st18" points="2007.1,2411.4 1946.1,2411.4 1949.5,2350.5 2010.4,2350.5 		"/>
		<polygon class="st18" points="2102.7,2411.4 2041.7,2411.4 2045.2,2350.5 2106.1,2350.5 		"/>
		<polygon class="st17" points="1811,2493.7 1750.1,2493.7 1753.5,2432.7 1814.6,2432.7 		"/>
		<polygon class="st18" points="1906.7,2493.7 1845.7,2493.7 1849.2,2432.7 1910.2,2432.7 		"/>
		<polygon class="st17" points="2002.3,2493.7 1941.4,2493.7 1944.9,2432.7 2005.8,2432.7 		"/>
		<polygon class="st5" points="1943.4,2458 1957.3,2450 1970.7,2461.6 2007.9,2436.8 2013.2,2436.8 1971.7,2482.2 		"/>
		<polygon class="st18" points="2098,2493.7 2037.1,2493.7 2040.5,2432.7 2101.4,2432.7 		"/>
		<polygon class="st17" points="1806.3,2576 1745.4,2576 1748.9,2515 1809.8,2515 		"/>
		<polygon class="st18" points="1902,2576 1841.1,2576 1844.5,2515 1905.5,2515 		"/>
		<polygon class="st18" points="1997.7,2576 1936.6,2576 1940.2,2515 2001.1,2515 		"/>
		<polygon class="st18" points="2093.3,2576 2032.3,2576 2035.9,2515 2096.8,2515 		"/>
	</g>
</g>
<g id="Other">
	<path class="st0" d="M1250.5,2292.6c-5.9,1.6-4.4,10,1.4,10.4c9.1,0.5,18.9,0.9,26.2,7.3c7.8,6.9,8,18.5,1.6,26.4
		c-17,20.9-46.5-9.9-28.7-28.6c2.3-2.4-1.3-6-3.7-3.7c-10.8,10.3-14.9,26.4-4.6,38.8c9.7,11.7,28.4,14.2,40.4,4.9
		C1312.2,2325.6,1281.9,2283.9,1250.5,2292.6z"/>
	<path class="st0" d="M2550.2,2211.3c-28.9,25.1-56,55.1-79.9,84.9c-5.1,6.3,3.5,15.8,10.1,10.5c29.7-23.8,59.9-51,84.8-79.7
		C2573.2,2217.8,2559.6,2203.2,2550.2,2211.3z"/>
	<path class="st0" d="M556.2,1828c4.4,38,13.9,77.2,25.1,113.8c2.4,7.8,15,6,14.4-2.4c-3-37.9-8.4-78.2-18.1-115
		C574.4,1812.7,554.7,1815.6,556.2,1828z"/>
	<path class="st0" d="M2551.8,1905c0.3,0.3,0.7,0.6,1,0.9c0,0,0.1,0.1,0.1,0.1c1,0.7,1.9,1.4,2.9,2c0.5,0.3,1.1,0.6,1.8,0.7
		c0.5,0.3,1.1,0.5,1.7,0.6c0.3,0,0.5,0.1,0.8,0.1c1.2,0.1,2.3,0.2,3.5,0.4c1.9,0,3.6-0.4,5.2-1.3c1.2-0.4,2.2-1,3-1.9
		c1.4-1,2.5-2.3,3.3-3.9c0.4-1.1,0.8-2.1,1.2-3.2c0.1-1.2,0.2-2.3,0.4-3.5c0-1.9-0.4-3.6-1.3-5.2c-0.6-1.7-1.6-3.1-3-4.3
		c-0.2-0.2-0.3-0.3-0.5-0.5c-0.9-0.9-1.9-1.6-3-2.2c-0.6-0.3-1.1-0.5-1.7-0.7c-0.6-0.3-1.2-0.5-1.8-0.7c-0.4-0.1-0.9-0.2-1.3-0.4
		c-1.1-0.1-2.3-0.2-3.4-0.4c-1.9,0-3.6,0.4-5.2,1.3c-1.2,0.4-2.1,1-3,1.8c-1.4,1-2.5,2.3-3.3,3.9c-0.4,1.1-0.8,2.1-1.2,3.2
		c-0.1,1.1-0.2,2.3-0.4,3.4c0,1.9,0.4,3.6,1.3,5.2C2549.4,1902.4,2550.4,1903.8,2551.8,1905z"/>
</g>
<g id="Coins">
	<g>
		<path class="st19" d="M1679.6,2054.6c-4.9,57.5-55.5,100.2-113,95.4c-57.5-4.9-100.2-55.5-95.4-113c4.9-57.5,55.5-100.2,113-95.4
			C1641.8,1946.4,1684.5,1997.1,1679.6,2054.6z"/>
		<path class="st17" d="M1666.8,2055.7c-4.9,57.5-55.5,100.2-113,95.3c-57.5-4.9-100.2-55.5-95.3-113s55.5-100.2,113-95.3
			S1671.7,1998.2,1666.8,2055.7z"/>
		<path class="st0" d="M1651.5,2054.3c-4.1,49.1-47.3,85.4-96.3,81.3c-49.1-4.1-85.4-47.3-81.3-96.3c4.1-49.1,47.3-85.4,96.3-81.3
			C1619.2,1962.2,1655.7,2005.4,1651.5,2054.3z"/>
		<g>
			<path class="st17" d="M1532.7,1998.2c12,0,21,7.3,21,21.4c0,14-9,21.3-21,21.3s-21.1-7.3-21.1-21.3
				C1511.6,2005.5,1520.7,1998.2,1532.7,1998.2z M1526.5,2019.6c0,5.9,2.3,8.6,6.1,8.6c3.8,0,6.2-2.7,6.2-8.6c0-6.1-2.4-8.7-6.2-8.7
				S1526.5,2013.5,1526.5,2019.6z M1576.6,1999.6h20.8l-48.6,88.9h-20.9L1576.6,1999.6z M1592.7,2047.2c12,0,21,7.2,21,21.3
				c0,14-9,21.4-21,21.4s-21-7.3-21-21.4C1571.8,2054.4,1580.7,2047.2,1592.7,2047.2z M1586.6,2068.6c0,5.9,2.3,8.6,6.1,8.6
				c3.8,0,6.2-2.7,6.2-8.6c0-5.9-2.4-8.7-6.2-8.7C1588.9,2059.9,1586.6,2062.7,1586.6,2068.6z"/>
		</g>
	</g>
	<g>
		<path class="st19" d="M2558,1719.2c24.9,36.5,15.5,86.2-20.9,111.1c-36.5,24.9-86.2,15.5-111.1-20.9
			c-24.9-36.5-15.5-86.2,20.9-111.1C2483.4,1673.3,2533.1,1682.7,2558,1719.2z"/>
		<path class="st17" d="M2560,1705.8c24.9,36.5,15.5,86.2-20.9,111.1c-36.5,24.9-86.2,15.5-111.1-20.9
			c-24.9-36.5-15.5-86.2,20.9-111.1C2485.3,1660,2535.1,1669.3,2560,1705.8z"/>
		<path class="st0" d="M2550.2,1712.4c21.2,31.1,13.2,73.5-17.9,94.7c-31.1,21.2-73.5,13.2-94.7-17.9s-13.2-73.5,17.9-94.7
			C2486.6,1673.3,2529.1,1681.3,2550.2,1712.4z"/>
		<g>
			<path class="st17" d="M2528.8,1757.8c-1,5.4-4.2,10.7-9.7,15.8l6.1,9l-9.7,6.6l-5.9-8.7c-4.2,2.5-8.5,4.4-12.9,5.8
				c-4.3,1.4-8.3,2-11.8,2.1l-2.8-15.4c3.6-0.1,7.5-0.8,11.5-2c4-1.3,7.7-3,10.9-5.2c6.2-4.2,8.2-7.8,6.1-10.9
				c-1.1-1.6-2.8-2.2-5.1-1.8c-2.3,0.4-5.6,1.5-10.1,3.3c-4.9,2-9.1,3.4-12.7,4.3c-3.6,0.9-7.2,0.9-10.8-0.1
				c-3.7-0.9-6.8-3.4-9.5-7.3c-3.2-4.7-4.2-9.7-3.1-15.4c1.1-5.6,4.5-10.9,10.3-16l-6.1-8.9l9.7-6.6l6,8.7c3.2-1.8,6.6-3.3,9.9-4.5
				c3.4-1.1,6.6-1.8,9.7-2l3.2,15.3c-7.4,0.8-13.6,2.8-18.7,6.3c-3.2,2.1-5.2,4.2-6,6.1c-0.8,1.9-0.7,3.7,0.3,5.2s2.7,2,4.9,1.6
				c2.3-0.4,5.6-1.5,9.9-3.3c4.9-2,9.2-3.5,12.7-4.3c3.6-0.9,7.1-0.9,10.8,0c3.6,0.9,6.8,3.3,9.5,7.2
				C2528.8,1747.4,2529.8,1752.3,2528.8,1757.8z"/>
		</g>
	</g>
	<g>
		<path class="st19" d="M2438.7,2360.2c-8.5,45-49.8,77.8-92.1,73c-42.3-4.7-69.8-45.1-61.3-90.1s49.8-77.8,92.2-73
			C2419.9,2274.7,2447.3,2315.1,2438.7,2360.2z"/>
		<path class="st17" d="M2427.2,2350.3c-8.5,45-49.8,77.8-92.2,73c-42.3-4.7-69.8-45.1-61.3-90.1s49.8-77.8,92.1-73
			S2435.8,2305.3,2427.2,2350.3z"/>
		<path class="st0" d="M2415.9,2349.1c-7.3,38.4-42.4,66.3-78.6,62.3c-36.1-4-59.5-38.4-52.2-76.8c7.3-38.4,42.4-66.3,78.6-62.3
			C2399.8,2276.2,2423.2,2310.7,2415.9,2349.1z"/>
		<g>
			<path class="st17" d="M2369.5,2370.3c-4.5,3.6-10.4,5.6-17.7,6l-2.1,11.1l-11.3-1.3l2-10.7c-4.6-0.9-8.9-2.2-12.9-4
				c-3.9-1.8-7.1-3.9-9.5-6.2l8.9-13.9c2.5,2.4,5.7,4.4,9.3,6.1c3.7,1.7,7.3,2.8,11.1,3.1c7.1,0.8,11.1-0.7,11.8-4.5
				c0.4-2-0.4-3.6-2.2-4.8c-1.8-1.2-4.9-2.6-9.2-4.1c-4.7-1.7-8.6-3.4-11.7-5c-3.1-1.6-5.5-4.1-7.3-7.2c-1.9-3.1-2.3-7.1-1.4-12
				c1.1-5.7,4-10.4,8.6-14.1c4.7-3.6,10.7-5.5,18.3-5.7l2.1-11l11.3,1.3l-2,10.8c3.5,0.7,6.8,1.8,9.9,3.1c3.1,1.3,5.8,3,8,4.9
				l-8.5,14.1c-5.6-4.3-11.3-6.8-17.2-7.5c-3.7-0.4-6.5-0.1-8.4,0.8c-1.9,1-3,2.4-3.4,4.2c-0.4,1.8,0.4,3.4,2.2,4.5
				c1.8,1.2,4.9,2.5,9.1,4c4.8,1.7,8.7,3.3,11.7,5c3.1,1.6,5.5,4.1,7.3,7.1c1.9,3.1,2.3,7.1,1.5,11.9
				C2376.8,2362.2,2374,2366.7,2369.5,2370.3z"/>
		</g>
	</g>
</g>
</svg>
